<svg width="416" height="212" viewBox="0 0 416 212" fill="none" xmlns="http://www.w3.org/2000/svg">
    <g clip-path="url(#clip0)">
        <rect width="416" height="212" rx="8" fill="#FFECE0"/>
        <path d="M220.192 156.944L146.08 200L108.784 178.496L182.896 135.44L220.192 156.944Z" fill="url(#paint0_linear)"/>
        <path d="M238.384 144.752C238.144 143.264 237.376 141.92 236.176 141.008C235.696 140.672 227.584 136.016 227.008 135.728L203.296 149.504C204.544 150.224 212.32 154.64 212.896 155.12C213.664 155.84 214.24 156.752 214.528 157.76C214.816 158.672 214.96 160.064 214 160.64C216.832 158.96 237.568 146.96 237.712 146.864C238.384 146.48 238.48 145.568 238.384 144.752Z" fill="#FF9F60"/>
        <path d="M195.904 119.312C194.512 118.496 193.312 119.168 193.312 120.752C193.312 120.8 193.264 133.952 193.264 138.656C193.264 140.768 193.36 142.928 193.6 145.04C194.608 153.344 212.128 160.448 212.128 160.448C213.52 161.264 214.72 160.592 214.72 159.008C214.624 157.232 213.664 155.552 212.176 154.592L202.72 149.216C202.144 148.88 201.616 148.496 201.088 148.064C200.512 147.584 200.032 147.008 199.6 146.384C199.312 145.952 199.072 145.472 198.928 144.944C198.592 143.888 198.4 142.784 198.448 141.68C198.448 134.576 198.496 128.048 198.496 125.216C198.496 124.256 198.496 123.776 198.496 123.728C198.4 121.952 197.44 120.272 195.904 119.312Z" fill="#F97126"/>
        <path d="M195.328 119.072C194.896 118.928 194.464 118.928 194.08 119.12L202.72 114.128L215.68 106.592L217.456 105.536C218.128 105.104 218.944 105.104 219.616 105.536C221.152 106.496 222.112 108.176 222.16 109.952C222.16 111.536 222.064 128.576 222.256 129.872C222.784 132.512 224.512 134.72 226.96 135.776L203.296 149.6C201.424 148.688 199.936 147.2 199.024 145.328C197.68 142.496 198.208 129.392 198.448 124.592C198.544 123.584 198.352 122.624 197.968 121.712C197.44 120.608 196.528 119.456 195.328 119.072Z" fill="url(#paint1_linear)"/>
        <path d="M159.808 89.6C159.856 102.944 159.952 142.496 160 149.792C160 151.76 159.328 157.184 161.488 158.432C158.416 156.656 154.528 155.168 154.48 151.52C154.384 146 154.336 103.04 154.288 86.336L159.808 89.6Z" fill="#FF8338"/>
        <path d="M245.728 27.776C249.04 25.856 252.016 29.024 254.848 30.656C252.64 29.36 182.944 70.448 164.8 80.912L159.232 77.696L245.728 27.776Z" fill="#FCBB91"/>
        <path d="M164.8 80.912C162.016 82.496 159.808 86.384 159.808 89.552L160 155.168C160 158.336 162.256 159.632 165.04 158.048L251.488 108.128C254.272 106.544 256.48 102.656 256.48 99.488L256.288 33.92C256.288 30.752 254.032 29.456 251.248 31.04L164.8 80.912Z" fill="#EE4A00"/>
        <path d="M163.84 81.632C161.536 83.504 159.808 86.624 159.808 89.6L154.24 86.384C154.24 85.472 154.96 79.472 159.232 77.744L164.8 80.96C164.464 81.152 164.128 81.344 163.84 81.632Z" fill="#FF9F60"/>
        <path d="M256.432 87.632L256.48 99.488C256.48 102.656 254.272 106.544 251.488 108.128L165.04 158.048C162.256 159.632 160 158.336 160 155.168L159.952 143.36L255.904 88.016C256.048 87.872 256.24 87.776 256.432 87.632Z" fill="#FF9F60"/>
        <path d="M178.048 82.208C173.296 84.944 169.408 91.616 169.456 97.088C169.504 102.56 173.344 104.768 178.096 102.032C182.848 99.296 186.736 92.624 186.688 87.152C186.64 81.68 182.8 79.472 178.048 82.208Z" fill="#F45300"/>
        <path d="M179.248 86.816L176.656 88.304V89.792L175.36 90.56V89.072C175.456 88.16 175.936 87.392 176.656 86.864L179.248 85.376C179.632 85.136 180.16 85.232 180.4 85.616C180.496 85.76 180.544 85.952 180.544 86.144V87.632L179.248 88.4V86.816Z" fill="#E0330A"/>
        <path d="M183.808 86.864V93.68C183.76 94.448 183.376 95.168 182.752 95.648L173.392 101.072C172.768 101.36 172.336 101.072 172.336 100.352V93.536L183.808 86.864Z" fill="#E0330A"/>
        <path d="M178.048 107.024C173.296 109.76 169.408 116.432 169.456 121.904C169.504 127.376 173.344 129.584 178.096 126.848C182.848 124.112 186.736 117.44 186.688 111.968C186.64 106.496 182.8 104.288 178.048 107.024Z" fill="#F45300"/>
        <path d="M178.048 111.728C176.56 112.688 175.648 114.272 175.6 116.048V117.872C175.6 119.456 176.704 120.08 178.096 119.312C179.584 118.352 180.496 116.768 180.544 114.992V113.168C180.544 111.584 179.392 110.96 178.048 111.728Z" fill="#E0330A"/>
        <path d="M178.096 126.848C175.744 128.24 173.584 128.336 172 127.472C173.536 124.832 175.696 122.528 178.048 121.184C180.4 119.84 182.56 119.696 184.144 120.56C182.56 123.2 180.448 125.504 178.096 126.848Z" fill="#E0330A"/>
        <path d="M206.992 76.208C204.064 77.888 200.608 82.064 200.608 85.424V119.456L198.016 120.992C195.088 122.672 192.688 121.328 192.688 117.968L192.592 84.176C192.592 80.816 194.944 76.736 197.872 75.008L252.784 43.52L256.24 41.504L256.288 47.888L206.992 76.208Z" fill="url(#paint2_linear)"/>
        <path opacity="0.8" d="M205.408 76.928L249.28 51.68L273.424 37.76C276.112 36.224 278.272 37.472 278.272 40.544L278.368 79.856C278.368 82.928 276.208 86.672 273.52 88.256L249.376 102.176L205.504 127.376C202.816 128.912 200.656 127.664 200.656 124.592L200.56 85.28C200.608 82.208 202.768 78.464 205.408 76.928Z" fill="#FFC06D"/>
        <path d="M217.744 77.312C215.728 78.608 214.48 80.816 214.336 83.216V87.152C214.336 89.312 215.872 90.224 217.744 89.12C219.76 87.824 221.008 85.616 221.152 83.216V79.28C221.152 77.12 219.616 76.208 217.744 77.312Z" fill="#CA3000"/>
        <path d="M217.792 91.328C214.576 93.248 211.696 95.648 209.296 98.48V101.168L226.288 91.328V88.64C223.6 88.688 220.672 89.648 217.792 91.328Z" fill="#CA3000"/>
        <path d="M231.328 85.376C230.464 85.904 229.936 86.864 229.888 87.824C229.888 88.736 230.512 89.072 231.328 88.64L258.208 73.088C259.072 72.56 259.6 71.648 259.648 70.64C259.648 69.728 259.024 69.392 258.208 69.824L231.328 85.376Z" fill="#FF8312"/>
        <path d="M231.328 77.648C230.464 78.176 229.936 79.088 229.888 80.096C229.888 81.008 230.512 81.344 231.328 80.912L268.384 59.504C269.248 58.976 269.776 58.064 269.824 57.056C269.824 56.144 269.2 55.808 268.384 56.24L231.328 77.648Z" fill="#FF8312"/>
        <path d="M231.328 69.392C230.464 69.92 229.936 70.832 229.888 71.84C229.888 72.752 230.512 73.088 231.328 72.656L248.704 62.576C249.568 62.048 250.096 61.136 250.144 60.128C250.144 59.216 249.52 58.832 248.704 59.312L231.328 69.392Z" fill="#FF8312"/>
        <path d="M270.88 70.688C272.176 69.92 273.232 70.544 273.232 72.032V79.904C273.136 81.584 272.272 83.072 270.88 83.984L210.88 118.688C209.584 119.456 208.528 118.832 208.528 117.344L208.48 109.616C208.576 107.888 209.488 106.304 210.928 105.344L270.88 70.688ZM272.512 80.336V72.464C272.512 71.456 271.792 71.024 270.88 71.552L210.928 106.16C209.92 106.832 209.296 107.936 209.2 109.136L209.248 116.864C209.248 117.872 209.968 118.304 210.88 117.776L270.976 83.072C271.888 82.496 272.464 81.488 272.512 80.336Z" fill="#EE4A00"/>
    </g>
    <defs>
        <linearGradient id="paint0_linear" x1="145.884" y1="199.922" x2="183.059" y2="135.536" gradientUnits="userSpaceOnUse">
            <stop stop-color="#CC4500" stop-opacity="0"/>
            <stop offset="1" stop-color="#CC4500" stop-opacity="0.2"/>
        </linearGradient>
        <linearGradient id="paint1_linear" x1="218.542" y1="140.779" x2="203.014" y2="113.883" gradientUnits="userSpaceOnUse">
            <stop stop-color="#FF9F60"/>
            <stop offset="1" stop-color="#F97126"/>
        </linearGradient>
        <linearGradient id="paint2_linear" x1="229.485" y1="85.0301" x2="205.622" y2="65.0109" gradientUnits="userSpaceOnUse">
            <stop stop-color="#E0330A" stop-opacity="0"/>
            <stop offset="1" stop-color="#E0330A"/>
        </linearGradient>
        <clipPath id="clip0">
            <rect width="416" height="212" rx="8" fill="white"/>
        </clipPath>
    </defs>
</svg>
